<svg width="212" height="176" viewBox="0 0 212 176" fill="none" xmlns="http://www.w3.org/2000/svg">
<path fill-rule="evenodd" clip-rule="evenodd" d="M89.8437 148.897C75.2493 156.083 59.8374 162.35 48.0608 173.927C47.3574 174.614 46.2315 174.609 45.5382 173.908C44.8513 173.205 44.8567 172.079 45.5571 171.386C57.6098 159.54 73.3347 153.049 88.269 145.698C89.15 145.259 90.2234 145.627 90.656 146.51C91.095 147.391 90.7247 148.458 89.8437 148.897Z" fill="#D1F56E"/>
<path fill-rule="evenodd" clip-rule="evenodd" d="M81.2539 126.856C74.6946 124.751 68.2062 123.904 61.4097 125.141C60.439 125.318 59.5127 124.674 59.3327 123.708C59.1592 122.739 59.8051 121.809 60.7693 121.635C68.1596 120.289 75.2086 121.176 82.3387 123.462C83.2784 123.761 83.7977 124.764 83.4936 125.703C83.1958 126.638 82.187 127.158 81.2539 126.856Z" fill="#D1F56E"/>
<path fill-rule="evenodd" clip-rule="evenodd" d="M72.6679 74.7195C67.2126 68.4649 60.4411 64.7307 52.184 63.5921C51.2104 63.4574 50.5269 62.5575 50.6646 61.5818C50.7958 60.609 51.6976 59.9262 52.6712 60.0609C61.8104 61.3231 69.3138 65.4508 75.3542 72.3758C76.003 73.1157 75.9209 74.2457 75.1824 74.8907C74.4377 75.5393 73.3102 75.4624 72.6679 74.7195Z" fill="#D1F56E"/>
<path fill-rule="evenodd" clip-rule="evenodd" d="M140.822 31.2675C142.761 32.1639 144.623 33.2346 146.365 34.4861C147.141 35.0429 148.634 36.299 149.387 37.6201C150.194 39.0251 150.268 40.4915 149.288 41.7353C147.985 43.3859 146.585 43.9247 145.295 43.8876C144.054 43.8532 142.808 43.233 141.699 42.1423C139.579 40.057 137.935 36.1315 137.414 33.6985C135.435 32.9362 133.387 32.3625 131.299 31.9758C115.747 29.0968 99.9842 40.1061 92.5066 58.6307C89.8905 65.1158 91.8864 75.269 95.2831 85.6484C100.57 101.81 109.52 118.452 111.983 123.402C112.588 124.625 112.812 125.414 112.815 125.591C112.845 126.454 112.395 126.89 112.053 127.135C111.554 127.483 111.073 127.58 110.64 127.561C110.052 127.531 109.462 127.273 108.968 126.682C108.699 126.354 108.433 125.848 108.19 125.288C108.025 124.899 107.909 124.443 107.704 124.204C106.384 122.677 104.98 121.238 103.583 119.782C98.9024 114.878 93.8087 110.61 88.4333 106.481C71.3548 93.3578 54.1204 79.1171 33.1526 72.8007C32.2122 72.517 31.6737 71.5234 31.96 70.5802C32.2398 69.64 33.234 69.106 34.1812 69.3873C55.5674 75.8268 73.1871 90.2718 90.6054 103.654C95.1771 107.167 99.5512 110.779 103.649 114.779C99.4862 106.276 94.0551 94.3522 90.759 83.1038C87.8269 73.1001 86.6597 63.6004 89.2024 57.2962C97.3935 37.003 114.916 25.3146 131.947 28.4713C133.769 28.8097 135.572 29.2751 137.325 29.873C138.429 14.6523 150.546 3.14924 165.922 3.06972C166.909 3.06322 167.709 3.85876 167.716 4.84147C167.717 5.82716 166.925 6.62875 165.938 6.63525C152.082 6.70719 141.265 17.3704 140.822 31.2675ZM141.761 35.758C142.628 36.2557 143.468 36.7985 144.288 37.3822C144.725 37.6972 145.517 38.3241 146.063 39.0443C146.188 39.2139 146.331 39.5047 146.394 39.6406C146.049 40.0672 145.749 40.335 145.398 40.3237C144.961 40.3124 144.588 39.9821 144.199 39.6003C143.222 38.6431 142.367 37.1703 141.761 35.758Z" fill="#D1F56E"/>
</svg>
