<svg width="86" height="99" viewBox="0 0 86 99" fill="none" xmlns="http://www.w3.org/2000/svg">
<path fill-rule="evenodd" clip-rule="evenodd" d="M40.7636 79.5453C50.1163 72.7225 58.2773 64.6947 65.2066 55.4214C72.1498 46.13 77.7111 36.1344 80.6867 24.834C73.0001 47.1999 58.7352 64.7203 40.7636 79.5453ZM74.458 23.0657C73.4154 24.5466 72.8946 26.2133 72.7082 27.9991C72.0729 28.084 72.1331 28.683 71.9531 29.0765C70.9137 31.3508 70.0404 33.7008 68.8205 35.8929C68.7087 36.0942 68.4461 36.328 68.8109 36.6894C70.2311 33.8012 71.8067 31.0454 72.6672 27.9607C73.4596 26.3927 74.0751 24.7612 74.4234 23.0299C75.0783 21.4988 75.4766 19.8971 75.7445 18.2598C75.3542 19.8715 74.3483 21.3188 74.458 23.0657ZM75.1627 11.8532C72.628 26.7358 65.8531 39.7104 56.8679 51.6968C57.1607 51.3615 57.4706 51.0396 57.7449 50.6899C66.252 39.8412 72.4747 27.8681 75.5993 14.3554C76.5892 10.0765 77.4316 5.76014 78.7085 1.55059C78.9513 0.750854 78.8571 -0.282188 80.3465 0.475906C81.0605 0.83947 82.1266 0.168938 83.0723 0.0904541C83.8407 0.0263901 83.8838 -0.214912 83.9935 0.503136C84.076 1.04181 84.6948 1.27405 84.5707 1.88212C85.009 1.71342 84.829 0.967598 85.3056 1.08878C85.8306 1.22225 85.8913 1.74706 85.9174 2.27398C86.141 6.72484 85.8998 11.1485 85.3237 15.5657C84.1325 24.6986 81.3949 33.3467 77.2149 41.5298C71.7441 52.2392 64.5799 61.7026 56.1373 70.2359C46.0993 80.381 34.3903 88.0351 21.4497 93.8766C16.7824 95.9838 12.0374 97.8849 6.901 98.5346C6.37383 98.6014 5.84454 98.6681 5.31417 98.698C4.88658 98.722 4.32001 98.8245 4.68797 98.0472C4.81257 97.783 4.74068 97.461 4.44142 97.5694C3.18421 98.0232 2.53564 96.948 1.60538 96.5657C0.514305 96.1173 0.318871 95.0608 0.0701981 94.253C-0.228531 93.2835 0.448799 92.5948 1.56757 92.203C12.1263 88.5017 21.462 82.5811 30.3578 75.9285C43.3415 66.218 54.395 54.6624 63.1081 40.925C67.9948 33.2207 71.6056 24.95 73.9624 16.1295C74.3448 14.6992 74.7617 13.2786 75.1627 11.8532Z" fill="#FF9515"/>
<path fill-rule="evenodd" clip-rule="evenodd" d="M56.3246 16.375C57.1667 15.1222 57.5391 13.6887 57.5876 12.1711C57.1667 13.5723 56.7454 14.9737 56.3246 16.375ZM54.7551 10.7371C54.1745 12.6008 53.1214 14.3028 53.0042 16.287C53.7824 14.4903 54.5186 12.6824 54.7551 10.7371ZM54.7758 6.41657C52.4044 11.8659 50.4889 17.5016 47.7456 22.7993C51.2575 17.825 52.9381 12.0865 54.7758 6.41657ZM49.9667 36.3952C56.9681 29.2491 61.3973 17.9197 61.514 11.1449C59.2799 20.4706 58.9966 21.0867 49.9667 36.3952ZM25.0429 47.8103C24.5629 48.2421 24.1879 48.5792 23.4896 49.2069C23.8449 47.9114 24.4388 47.2537 25.0327 46.6007C27.8207 43.5395 30.7723 40.639 33.7984 37.8085C39.0207 32.9242 43.7956 27.675 47.3773 21.4537C49.6544 17.4978 51.2194 13.2391 52.8894 9.02206C53.3629 7.82613 53.8045 6.55596 54.5785 5.56173C55.0078 5.00984 55.997 4.8229 56.4087 4.0688C57.0032 4.39529 56.4023 4.94981 56.7875 5.24945C57.6882 4.78709 58.4585 3.61381 59.665 4.80552C59.8306 4.96929 60.0176 4.46217 60.1859 4.26364C60.5694 3.81181 61.0254 3.6275 61.5948 3.83709C62.1707 4.04879 62.5217 4.38107 62.6058 5.07409C62.723 6.03409 62.2367 6.90036 62.2415 8.0057C63.0213 7.55335 62.8056 6.8377 63.0618 6.34953C63.2413 6.00829 63.1513 5.37741 63.7719 5.41954C64.3434 5.45798 64.565 5.92982 64.6492 6.42273C64.7211 6.84401 64.7594 7.28004 64.7419 7.7066C64.2752 18.9439 60.587 29.0015 53.4583 37.8001C49.786 42.3331 45.8384 46.5902 41.0587 50.0263C38.715 51.7109 36.09 52.7857 33.3238 53.5535C32.4294 53.8015 31.5265 53.9621 30.7377 53.1965C30.5592 53.0232 30.2092 52.9695 29.9333 52.9558C27.6492 52.8457 26.0837 51.3965 24.5693 49.9915C23.937 49.4054 25.1164 48.7835 25.0429 47.8103Z" fill="#FF9515"/>
<path fill-rule="evenodd" clip-rule="evenodd" d="M78.498 1.25057C77.4809 4.09065 77.2388 7.10009 76.019 10.002C75.7893 8.77501 77.4679 2.72909 78.498 1.25057Z" fill="#FF9515"/>
</svg>
